<?xml version="1.0" encoding="utf-8"?>
<!-- Generator: Adobe Illustrator 13.0.0, SVG Export Plug-In . SVG Version: 6.00 Build 14948)  -->
<!DOCTYPE svg PUBLIC "-//W3C//DTD SVG 1.1//EN" "http://www.w3.org/Graphics/SVG/1.1/DTD/svg11.dtd">
<svg version="1.1" xmlns="http://www.w3.org/2000/svg" xmlns:xlink="http://www.w3.org/1999/xlink" x="0px" y="0px" width="500px"
	 height="500px" viewBox="0 0 500 500" enable-background="new 0 0 500 500" xml:space="preserve">
<g id="Layer_2_1_">
	<rect x="19.999" y="20.5" fill="#FFFFFF" stroke="#000000" stroke-width="40" width="460.05" height="308.458"/>
	<line fill="none" stroke="#000000" stroke-width="40" x1="275.689" y1="344" x2="275.689" y2="397.172"/>
	<line fill="none" stroke="#000000" stroke-width="40" x1="186.689" y1="344" x2="186.689" y2="398.125"/>
	<line display="none" fill="none" stroke="#000000" stroke-width="30" x1="256.096" y1="382.396" x2="400.011" y2="382.396"/>
	<line fill="none" stroke="#000000" stroke-width="30" x1="87.127" y1="383.271" x2="231.043" y2="383.271"/>
	<line fill="none" stroke="#000000" stroke-width="30" x1="256.127" y1="383.271" x2="400.043" y2="383.271"/>
</g>
<g id="Layer_1">
	<g id="Layer_2_2_" opacity="0.8">
		<g>
			<path fill="#DB0F4E" stroke="#DB0F4E" d="M252.59,277.19V140.196L194.47,277.19H153.9L95.78,140.196V277.19H53.5V82.132h57.437
				l63.248,147.643l63.248-147.643h57.209V277.19H252.59z"/>
		</g>
	</g>
	<g id="Layer_3_1_" opacity="0.8">
		<g>
			<path fill="#0098E7" stroke="#0098E7" d="M447.38,179.651c0,12.495-1.12,23.596-3.365,33.297
				c-2.245,9.705-5.397,18.154-9.46,25.346c-4.062,7.197-8.937,13.302-14.625,18.317c-5.686,5.021-12.012,9.041-18.978,12.07
				c-6.963,3.031-14.47,5.231-22.518,6.604c-8.048,1.373-16.443,2.059-25.187,2.059H252.034V82.239h100.982
				c8.743,0,17.138,0.688,25.188,2.059c8.046,1.374,15.572,3.575,22.575,6.604c7.003,3.031,13.367,7.029,19.094,11.999
				c5.726,4.969,10.621,11.076,14.683,18.318c4.063,7.242,7.215,15.69,9.461,25.347C446.258,156.22,447.38,167.25,447.38,179.651z
				 M403.971,179.651c0-9.373-0.987-17.512-2.961-24.424c-1.972-6.909-5.147-12.613-9.518-17.11
				c-4.372-4.496-10.08-7.857-17.121-10.082c-7.042-2.223-15.63-3.338-25.767-3.338h-53.51v110.191h53.51
				c10.137,0,18.726-1.112,25.767-3.338c7.041-2.223,12.749-5.63,17.121-10.223c4.371-4.591,7.546-10.341,9.518-17.253
				C402.983,197.165,403.971,189.021,403.971,179.651z"/>
		</g>
	</g>
</g>
</svg>
