<?xml version="1.0" encoding="utf-8"?>
<!-- Generator: Adobe Illustrator 13.0.0, SVG Export Plug-In . SVG Version: 6.00 Build 14948)  -->
<!DOCTYPE svg PUBLIC "-//W3C//DTD SVG 1.1//EN" "http://www.w3.org/Graphics/SVG/1.1/DTD/svg11.dtd">
<svg version="1.1" xmlns="http://www.w3.org/2000/svg" xmlns:xlink="http://www.w3.org/1999/xlink" x="0px" y="0px" width="500px"
	 height="500px" viewBox="0 0 500 500" enable-background="new 0 0 500 500" xml:space="preserve">
<g id="Layer_2" opacity="0.8">
	<g>
		<path fill="#DB0F4E" stroke="#DB0F4E" d="M252.35,277.043V127.226l-63.559,149.817h-44.367l-63.56-149.817v149.817H34.627V63.728
			h62.812l69.168,161.461l69.167-161.461h62.563v213.315H252.35z"/>
	</g>
</g>
<g id="Layer_3" opacity="0.8">
	<g>
		<path fill="#0098E7" stroke="#0098E7" d="M465.885,170.16c0,13.691-1.229,25.854-3.688,36.485
			c-2.46,10.633-5.914,19.891-10.365,27.772c-4.451,7.884-9.793,14.574-16.024,20.07c-6.231,5.499-13.163,9.906-20.794,13.225
			c-7.631,3.321-15.855,5.732-24.673,7.235c-8.818,1.505-18.018,2.256-27.598,2.256H251.844V63.427h110.646
			c9.58,0,18.778,0.753,27.598,2.256c8.816,1.505,17.062,3.917,24.736,7.235c7.672,3.321,14.646,7.702,20.921,13.147
			c6.273,5.445,11.637,12.136,16.088,20.071c4.451,7.935,7.905,17.192,10.365,27.772
			C464.655,144.488,465.885,156.572,465.885,170.16z M418.32,170.16c0-10.269-1.081-19.188-3.243-26.761
			c-2.162-7.57-5.64-13.82-10.429-18.748c-4.791-4.925-11.045-8.608-18.759-11.046c-7.716-2.436-17.127-3.657-28.233-3.657h-58.63
			v120.735h58.63c11.106,0,20.518-1.218,28.233-3.656c7.714-2.436,13.968-6.17,18.759-11.202c4.789-5.03,8.267-11.331,10.429-18.904
			C417.239,189.35,418.32,180.428,418.32,170.16z"/>
	</g>
</g>
</svg>
